<?xml version="1.0" encoding="UTF-8" standalone="no"?>
<!-- Created with Inkscape (http://www.inkscape.org/) -->

<svg
   version="1.1"
   id="svg2708"
   width="258.20081"
   height="357.9906"
   viewBox="0 0 258.20081 357.9906"
   sodipodi:docname="man11b.svg"
   inkscape:version="1.2.2 (732a01da63, 2022-12-09, custom)"
   xmlns:inkscape="http://www.inkscape.org/namespaces/inkscape"
   xmlns:sodipodi="http://sodipodi.sourceforge.net/DTD/sodipodi-0.dtd"
   xmlns="http://www.w3.org/2000/svg"
   xmlns:svg="http://www.w3.org/2000/svg">
  <defs
     id="defs2712" />
  <sodipodi:namedview
     id="namedview2710"
     pagecolor="#ffffff"
     bordercolor="#000000"
     borderopacity="0.25"
     inkscape:showpageshadow="2"
     inkscape:pageopacity="0.0"
     inkscape:pagecheckerboard="0"
     inkscape:deskcolor="#d1d1d1"
     showgrid="false"
     inkscape:zoom="1.0263363"
     inkscape:cx="227.0211"
     inkscape:cy="83.793197"
     inkscape:window-width="1920"
     inkscape:window-height="1031"
     inkscape:window-x="0"
     inkscape:window-y="25"
     inkscape:window-maximized="1"
     inkscape:current-layer="layer2" />
  <g
     inkscape:groupmode="layer"
     id="layer2"
     inkscape:label="Layer 1">
    <path
       style="fill:#000000;stroke-width:1.42663"
       d="m -193.42472,78.680901 c 1.55725,-2.909739 17.2988,-15.251135 21.3642,-16.74955 5.67303,-2.090966 16.79423,-10.319079 17.47717,-12.930648 0.53899,-2.061096 -0.6774,-4.426946 -4.07451,-7.924839 -2.66358,-2.74261 -4.84289,-5.920354 -4.84289,-7.061657 0,-1.141303 -2.82126,-3.728468 -6.26946,-5.749257 -7.67139,-4.495722 -13.08684,-10.735084 -17.47734,-20.1363407 -6.05908,-12.9741199 -3.70929,-39.3039383 4.895,-54.8495393 9.0596,-16.36823 9.13638,-16.597302 7.54436,-22.509609 -0.82354,-3.058407 -1.78286,-7.768195 -2.13181,-10.466222 -0.34896,-2.698023 -0.73924,-5.226496 -0.86728,-5.618819 -0.37463,-1.147807 0.14038,-30.26375 0.61824,-34.95241 0.2399,-2.35394 1.39078,-6.52682 2.5575,-9.27309 2.42377,-5.70514 2.2368,-28.32682 -0.28903,-34.97027 -1.07593,-2.8299 -1.04261,-5.36217 0.11676,-8.87511 1.71221,-5.18804 1.25294,-9.74392 -1.69221,-16.78634 -0.98442,-2.35394 -1.91708,-5.24286 -2.07257,-6.41983 -0.56868,-4.30454 -5.37973,-22.23181 -7.08285,-26.39263 -0.96353,-2.35394 -3.52865,-10.05774 -5.70028,-17.11955 -2.17162,-7.06182 -4.49734,-13.44955 -5.16826,-14.19496 -1.98132,-2.20131 -1.39353,-7.94069 0.9035,-8.82215 1.16785,-0.44815 5.50124,0.0475 9.62975,1.10151 4.12851,1.05397 8.46649,1.80684 9.63995,1.67303 3.08389,-0.35165 11.41941,5.13699 11.41941,7.51926 0,1.11298 0.67987,2.02359 1.51082,2.02359 0.83095,0 1.14604,0.59023 0.7002,1.31161 -0.44584,0.72139 0.14039,2.26262 1.30272,3.42496 1.69394,1.69394 3.25395,1.82383 7.86064,0.65453 6.75625,-1.71492 9.92192,0.0141 9.0833,4.96102 -0.439,2.58952 0.62091,3.7458 5.54943,6.05411 5.11023,2.39342 6.01319,3.42806 5.60278,6.41983 -0.2691,1.96162 -1.52753,4.72924 -2.79653,6.15027 -1.56071,1.74769 -1.80673,2.90173 -0.76032,3.56658 2.21702,1.4086 -0.15203,6.8768 -3.83274,8.84666 -5.32508,2.8499 -8.18779,5.94841 -7.71584,8.3514 0.2518,1.28204 0.83165,4.67644 1.28856,7.5431 0.99225,6.22526 5.1721,9.01129 4.37576,2.9166 -0.2766,-2.11685 -0.90225,-5.45378 -1.39035,-7.4154 -0.76366,-3.06903 0.19852,-4.40028 6.89732,-9.54289 6.58462,-5.05496 8.04746,-5.65979 9.48868,-3.92323 0.93715,1.1292 2.69527,2.05309 3.90695,2.05309 1.21166,0 1.82157,0.38144 1.35534,0.84769 -0.46623,0.46622 1.40967,2.82966 4.16867,5.25209 5.05588,4.43913 5.47712,6.71845 2.61052,14.12559 -0.73754,1.90577 -0.29794,2.22829 2.16078,1.58532 1.69768,-0.44395 3.42061,-1.67739 3.82875,-2.74097 0.40815,-1.06359 1.31677,-1.57859 2.0192,-1.14447 0.70243,0.43414 1.27714,0.23744 1.27714,-0.43708 0,-2.18349 -3.53312,-8.9058 -4.68674,-8.91726 -0.61609,-0.006 -0.43301,-1.2951 0.40685,-2.86439 0.83987,-1.5693 0.97251,-2.85326 0.29478,-2.85326 -0.67773,0 -4.26748,-2.01047 -7.97722,-4.4677 -4.5866,-3.03803 -6.47993,-5.15839 -5.9167,-6.62614 0.45555,-1.18715 -0.0908,-3.18908 -1.21415,-4.44874 -1.92552,-2.15919 -2.82172,-6.44366 -2.46417,-11.78047 0.0868,-1.29637 2.08387,-3.02843 4.4378,-3.84902 2.35394,-0.82058 4.27989,-2.48834 4.27989,-3.70613 0,-3.33596 5.26199,-7.92067 9.09075,-7.92067 2.81424,0 3.52996,-0.91127 4.2494,-5.41039 0.92294,-5.77176 7.663217,-13.63623 11.097126,-12.94799 2.488121,0.49868 11.427208,-4.20377 13.581645,-7.14468 1.427213,-1.94822 2.117889,-1.9827 5.32578,-0.26589 2.027239,1.08494 4.953853,3.15391 6.503577,4.5977 1.54973,1.44379 4.288995,2.64643 6.087261,2.67254 5.872401,0.0852 10.047074,5.02263 10.790749,12.76223 0.624676,6.50117 0.99951,7.08209 5.136105,7.96013 4.705767,0.99885 9.455456,4.39285 9.455456,6.75661 0,1.95953 4.518677,5.18611 7.339292,5.24066 2.078456,0.0401 2.147304,0.71861 0.603491,5.9472 -0.958436,3.246 -2.656151,6.61641 -3.77272,7.4898 -1.116565,0.87338 -2.167103,3.47113 -2.334518,5.77277 -0.494969,6.80483 -1.445336,8.25078 -4.387856,6.67598 -3.097381,-1.65767 -4.755382,-0.66635 -6.888834,4.11883 -0.874568,1.96161 -2.410918,5.30291 -3.414093,7.42512 -1.548864,3.27657 -1.465107,4.40624 0.555329,7.4898 1.308602,1.99719 3.409514,3.63125 4.66867,3.63125 1.846517,0 2.123907,-1.03493 1.433976,-5.34986 -1.22312,-7.6495 0.07004,-10.98537 4.976724,-12.83741 2.36404,-0.89233 4.638055,-2.92182 5.053378,-4.50998 1.376897,-5.26526 6.120737,-5.23261 11.129658,0.0766 6.673757,7.07383 8.193629,10.66128 7.281015,17.1859 -0.672255,4.80622 -0.477979,5.4803 1.182305,4.10238 1.092726,-0.90687 2.211819,-4.98592 2.486886,-9.06456 0.472071,-6.99962 0.187557,-7.7283 -5.071068,-12.98691 -4.759261,-4.75926 -5.328785,-5.95939 -3.907822,-8.23472 1.304282,-2.08848 1.195885,-3.56758 -0.502058,-6.85106 -4.271028,-8.25924 -1.57922,-13.45965 6.966898,-13.45965 3.632197,0 4.5686676,-0.58169 4.503225,-2.79715 -0.09744,-3.2988 6.3415532,-5.66393 12.4003882,-4.55484 2.6628296,0.48744 3.9232295,0.11254 3.9232295,-1.16694 0,-2.90423 3.9409333,-10.13427 7.0650493,-12.96156 2.823785,-2.55549 10.054498,-2.17633 10.054498,0.52723 0,1.54445 11.32709,-0.88147 13.835304,-2.9631 2.75873,-2.28955 6.1375,-0.29175 6.1375,3.629 0,1.91634 -1.275678,7.55384 -2.834854,12.52778 -1.559163,4.97395 -2.843129,10.40939 -2.853258,12.07877 -0.0098,1.66937 -0.877519,3.74824 -1.927563,4.61968 -1.050025,0.87145 -2.69858,5.11201 -3.66344,9.42345 -0.964856,4.31144 -2.352681,8.20881 -3.084042,8.66082 -0.731375,0.45202 -1.329761,2.38891 -1.329761,4.30422 0,1.9153 -0.641983,3.48238 -1.426629,3.48238 -0.784646,0 -1.426629,2.11854 -1.426629,4.70787 0,2.58933 -0.533759,5.31776 -1.186126,6.06317 -2.725405,3.1141 -4.33046,13.57498 -3.918325,25.53738 0.28323,8.22019 -0.222732,14.35501 -1.420191,17.22095 -2.866842,6.86134 -2.763184,17.51694 0.277301,28.50178 1.52026,5.49252 2.74536,12.6525 2.722436,15.91105 -0.02318,3.25857 0.409308,5.64698 0.960491,5.30759 1.932186,-1.18975 5.793428,14.555211 6.267524,25.557017 0.490377,11.379987 1.695134,14.676498 9.368659,25.634978 3.058349,4.367611 3.982778,7.710399 4.743367,17.152431 0.839558,10.422407 0.546573,12.774503 -2.632585,21.134567 -1.967522,5.1738388 -5.191146,12.2976657 -7.163648,15.8307434 -1.972484,3.5330598 -3.283698,7.6457006 -2.913818,9.1391986 1.130933,4.566309 -4.35404,11.71833 -9.765502,12.733532 -2.638078,0.494898 -7.573915,3.097667 -10.9685207,5.783924 -3.3946233,2.686258 -6.7236619,4.884091 -7.3978867,4.884091 -2.47284723,0 -1.10169636,2.98247 3.9333452,8.555667 2.8375649,3.140835 6.1623952,5.710622 7.3885112,5.710622 3.631898,0 11.649566,2.923764 24.444872,8.914193 14.868799,6.961177 22.925828,13.187699 22.925828,17.717201 v 3.327813 H -67.253489 -194.98697 Z"
       id="path3189"
       transform="translate(197.72079,276.3906)" />
    <g
       id="layer3"
       inkscape:label="08">
      <path
         style="fill:#ff0000;stroke-width:1.42663"
         d="M 44.787075,74.479279 C 40.89516,71.448619 20.759604,62.539353 14.471211,61.065587 9.8095449,59.973075 9.6268918,60.921275 13.401239,66.620323 c 1.558949,2.353938 2.838693,5.724349 2.843856,7.489802 0.0085,3.139912 0.359421,3.209228 16.058977,3.178186 l 16.049575,-0.03165 -3.566572,-2.777317 z"
         id="path3222"
         transform="translate(197.72079,276.3906)" />
      <path
         style="fill:#ff0000;stroke-width:1.42663"
         d="m 7.6947236,74.539197 c 0,-1.529502 -3.0916475,-9.393794 -6.87031494,-17.476204 C -2.9542632,48.980587 -6.9156951,40.120763 -7.9787655,37.374502 -11.16972,29.131199 -20.022652,14.575563 -21.551169,15.059275 c -3.090221,0.97791 0.275741,20.888598 3.531263,20.888598 0.804062,0 1.461938,1.49615 1.461938,3.32479 0,3.367241 -1.749132,7.082312 -12.707996,26.991074 l -6.08603,11.056374 h 21.523354 c 20.3856404,0 21.5233636,-0.146987 21.5233636,-2.780914 z"
         id="path3220"
         transform="translate(197.72079,276.3906)" />
      <path
         style="fill:#ff0000;stroke-width:1.42663"
         d="m -113.49088,73.396882 c -5.91649,-7.702882 -13.33831,-19.647961 -15.85327,-25.515116 -3.34175,-7.795983 -5.07537,-19.067038 -2.93274,-19.067038 0.87373,0 1.58861,1.604958 1.58861,3.566573 0,4.439611 2.25443,4.684367 3.28508,0.356657 0.42045,-1.765453 1.21215,-4.654377 1.75933,-6.41983 0.80437,-2.595234 0.44493,-3.209915 -1.87697,-3.209915 -6.60178,0 -17.71899,18.218778 -23.06925,37.805666 -1.71464,6.277167 -3.43829,12.536501 -3.83034,13.909632 -0.65718,2.301736 1.02995,2.4966 21.61506,2.4966 h 22.32787 z"
         id="path3218"
         transform="translate(197.72079,276.3906)" />
      <path
         style="fill:#ff0000;stroke-width:1.42663"
         d="m -162.07233,72.683567 c 6.98741,-4.561873 9.59631,-8.222161 7.86133,-11.029424 -0.98831,-1.599108 -9.86319,2.625497 -22.12941,10.534014 l -7.84645,5.058924 7.50637,0.03656 c 6.09749,0.02987 8.83931,-0.833709 14.60816,-4.600023 z"
         id="path3216"
         transform="translate(197.72079,276.3906)" />
    </g>
    <g
       id="layer4"
       inkscape:label="07">
      <path
         style="fill:#0000ff;stroke-width:1.42663"
         d="m -40.694759,73.178608 c 3.208787,-0.983634 5.842817,-3.02518 7.081728,-5.488826 1.084951,-2.157451 3.238474,-5.794155 4.785613,-8.081554 3.286383,-4.858813 4.136836,-4.939489 -13.013883,1.234391 -13.767495,4.955979 -32.791047,6.201056 -47.340549,3.098397 -10.84987,-2.31372 -27.1949,-9.164009 -32.09636,-13.451742 -2.60864,-2.282009 -2.7082,-2.271322 -1.80715,0.193977 0.89317,2.443731 8.63326,14.376099 12.83353,19.784606 1.03402,1.331441 5.04411,3.064042 8.91131,3.850199 8.853407,1.799808 53.813105,0.955084 60.645761,-1.139448 z"
         id="path3224"
         transform="translate(197.72079,276.3906)" />
    </g>
    <g
       id="layer1"
       inkscape:label="06"
       transform="translate(197.72079,276.3906)">
      <path
         style="fill:#f4d7d7;stroke-width:1.42663"
         d="m -65.93421,-21.207714 c 4.420927,-0.09014 4.424164,-0.09585 0.870859,-1.569719 -4.915378,-2.038725 -19.931383,-2.384526 -24.198818,-0.557255 -3.479619,1.489927 -3.466182,1.513065 1.426629,2.45698 2.716627,0.524086 7.757357,0.684582 11.201618,0.356658 3.444257,-0.327902 8.259129,-0.636919 10.699712,-0.686664 z"
         id="path3250" />
      <path
         style="fill:#f4d7d7;stroke-width:1.42663"
         d="m -63.438108,-15.28629 c 3.364633,-2.726105 3.353536,-2.728557 -11.253646,-2.4966 -10.05562,0.159693 -14.622023,0.751931 -14.622946,1.896587 -0.002,2.4648 2.537629,3.091317 13.036927,3.216165 7.319908,0.08702 10.236838,-0.507296 12.839665,-2.616152 z"
         id="path3248" />
    </g>
    <g
       id="layer9"
       inkscape:label="05">
      <path
         style="fill:#ffeeaa;stroke-width:1.42663"
         d="m -33.755578,-100.38926 c -2.780531,-3.35032 -9.260066,-6.32642 -13.760723,-6.32042 -3.797129,0.006 -14.250422,5.19346 -12.994293,6.44959 0.327054,0.327057 4.053512,0.0479 8.28101,-0.62038 5.365337,-0.84815 9.434569,-0.66273 13.475865,0.61403 3.184236,1.006004 6.028622,1.892569 6.320853,1.970151 0.292236,0.07762 -0.30298,-0.864252 -1.322712,-2.092971 z"
         id="path3260"
         transform="translate(197.72079,276.3906)" />
      <path
         style="fill:#00ffff;stroke-width:1.42663"
         d="m -51.78901,-95.383514 c 0.587272,-2.245741 0.344308,-2.583598 -1.034837,-1.439014 -0.991275,0.822684 -2.224725,1.073369 -2.741022,0.557086 -0.516283,-0.516297 -0.938708,-0.243227 -0.938708,0.606803 0,0.85003 0.802479,1.869325 1.783286,2.265085 0.980807,0.395756 1.868911,0.770255 1.973554,0.832198 0.104723,0.06192 0.535628,-1.208025 0.957727,-2.822158 z"
         id="path3258"
         transform="translate(197.72079,276.3906)" />
      <path
         style="fill:#00ffff;stroke-width:1.42663"
         d="m -38.620525,-90.472856 c 3.730447,-2.444288 4.865914,-5.652264 1.550286,-4.379925 -1.081353,0.414971 -2.73997,0.0029 -3.685807,-0.917336 -1.32146,-1.284666 -1.65295,-1.176255 -1.431439,0.468135 0.545244,4.047761 -0.05564,5.498812 -2.546404,6.149725 -2.335275,0.610285 -2.332039,0.663128 0.0502,0.817931 1.400735,0.09104 4.129163,-0.871314 6.063173,-2.13853 z"
         id="path3256"
         transform="translate(197.72079,276.3906)" />
    </g>
    <g
       id="layer8"
       inkscape:label="04">
      <path
         style="fill:#00ffff;stroke-width:1.42663"
         d="m -103.6277,-94.23201 c 0.025,-0.588485 -1.49919,-1.069972 -3.38698,-1.069972 -3.1162,0 -3.28423,0.313858 -1.82426,3.407517 1.45001,3.072544 1.78297,3.177717 3.38698,1.069971 0.97839,-1.285646 1.7993,-2.819032 1.82426,-3.407516 z"
         id="path3270"
         transform="translate(197.72079,276.3906)" />
      <path
         style="fill:#00ffff;stroke-width:1.42663"
         d="m -117.84862,-90.96466 c 0,-2.221475 -0.87858,-2.734362 -4.27674,-2.496601 -4.97118,0.34783 -4.91298,2.639295 0.10263,4.0409 1.90344,0.531905 3.6213,1.031109 3.81746,1.109315 0.19616,0.0782 0.35665,-1.115909 0.35665,-2.653614 z"
         id="path3268"
         transform="translate(197.72079,276.3906)" />
      <path
         style="fill:#ffeeaa;stroke-width:1.42663"
         d="m -111.0724,-98.650008 c 9.3428,-0.229019 10.56041,-1.613482 4.44989,-5.059682 -4.62167,-2.60652 -15.41466,-1.04342 -20.51905,2.97168 -4.54425,3.574518 -2.30091,5.997919 3.46734,3.74566 2.02711,-0.791511 7.69793,-1.537451 12.60182,-1.657658 z"
         id="path3272"
         transform="translate(197.72079,276.3906)" />
    </g>
    <g
       id="layer5"
       inkscape:label="03"
       style="fill:#ffeeaa">
      <path
         style="fill:#ffeeaa;stroke-width:1.42663"
         d="m -49.292383,58.859676 c 23.397258,-7.28204 27.947817,-11.135735 26.283957,-22.258804 -1.428644,-9.550612 -3.377958,-26.8493564 -3.459022,-30.6961899 -0.04235,-2.0078108 -0.994517,-4.8967343 -2.116003,-6.41983006 -1.999434,-2.71541874 -2.135962,-2.71752744 -7.020539,-0.10869129 -3.926684,2.09726045 -5.591119,4.36281845 -7.860756,10.69971725 -4.231025,11.813214 -4.719289,13.923697 -5.713818,24.697541 -0.502018,5.438465 -1.54059,9.631171 -2.331812,9.413454 -1.799309,-0.495111 -1.079601,-11.667158 1.578395,-24.50125 1.12113,-5.41333 1.694336,-10.1864869 1.273793,-10.6070304 -0.420544,-0.4205434 -3.160269,1.5252094 -6.088295,4.3238714 -6.282374,6.004837 -11.214387,8.774495 -13.314153,7.476775 -0.83143,-0.513858 -5.919297,-0.86719 -11.306372,-0.78519 -9.452946,0.143911 -9.883614,-0.0014 -12.343457,-4.16564 -2.790959,-4.72471 -7.118798,-5.132926 -6.488473,-0.612024 0.214618,1.539234 1.335632,8.25546 2.49117,14.92495 2.428266,14.015359 2.586996,17.119547 0.87538,17.119547 -0.680052,0 -1.927741,-5.29636 -2.772644,-11.769689 -2.508578,-19.219731 -5.852418,-27.2450049 -15.455008,-37.0923511 -4.65322,-4.7718329 -5.64064,-2.9557477 -7.36881,13.5529751 -0.92406,8.827266 -2.07816,18.832954 -2.56469,22.234867 -0.80699,5.642727 -0.46371,6.623535 3.91345,11.181387 2.63893,2.747861 7.26773,6.268607 10.28623,7.823905 15.759038,8.119899 43.08553,10.676904 59.501477,5.567678 z"
         id="path3226"
         transform="translate(197.72079,276.3906)" />
      <path
         id="path3244"
         style="display:inline;fill:#ffeeaa;stroke-width:1.42663"
         d="m -44.421962,-143.11326 c -0.332391,-0.018 -0.659743,-0.0166 -0.984375,0.004 -0.742013,0.047 -1.467218,0.19343 -2.18164,0.43359 -2.108917,0.70894 -2.430348,7.42774 -0.355469,7.42774 0.784641,0 1.425781,0.64308 1.425781,1.42773 0,1.97898 -9.0097,1.78784 -13.841797,-0.29297 -2.194689,-0.94509 -5.132494,-2.86235 -6.527344,-4.26172 -4.429752,-4.44406 -9.404565,-4.74542 -16.55664,-1.0039 -3.594328,1.88035 -7.394535,4.22036 -8.445313,5.20117 -2.707411,2.52713 -8.839841,2.27895 -8.839841,-0.35742 0,-2.84709 -0.53124,-2.73963 -7.13281,1.42773 -3.1074,1.96161 -7.28128,3.56641 -9.27344,3.56641 -3.12872,0 -3.50174,-0.47562 -2.7461,-3.48633 1.83584,-7.3145 -1.09828,-7.04156 -8.51757,0.79102 -4.00556,4.22861 -9.42546,9.50847 -12.04297,11.73242 l -4.75782,4.04297 1.02344,18.783201 c 1.06931,19.615918 2.02422,24.032301 6.21875,28.767578 1.39009,1.569282 4.0136,5.3357 5.83008,8.36914 l 3.30273,5.515625 -3.07226,-0.974609 c -1.68955,-0.536238 -3.07227,-0.409992 -3.07227,0.28125 0,6.189939 4.59861,33.74094 6.02344,36.089844 1.59061,2.622213 7.50755,7.442334 24.65039,20.08398412 2.35394,1.73585558 6.525236,5.21326948 9.271486,7.72656248 2.746246,2.5132954 6.27837,5.2759364 7.847656,6.1386714 3.892818,2.140116 22.104588,2.062363 26.714844,-0.113281 2.059503,-0.97193 4.805448,-3.561727 6.101562,-5.7558591 1.296119,-2.1941442 5.836415,-5.9530239 10.089844,-8.35351565 9.895262,-5.58453765 18.814543,-15.62566025 19.939453,-22.44726525 0.470529,-2.853364 1.415666,-6.792302 2.101563,-8.753907 2.157774,-6.171192 3.41757,-26.220092 1.576171,-25.082031 -0.887104,0.548254 -1.611328,1.922082 -1.611328,3.052734 0,1.130656 -0.643093,2.056641 -1.427734,2.056641 -1.941106,0 -1.985317,0.191557 2.916016,-12.392578 5.808664,-14.913676 8.233314,-31.12906 5.9375,-39.712895 -0.945454,-3.53492 -1.720704,-8.53687 -1.720704,-11.11523 0,-3.62639 -1.69453,-6.60997 -7.488281,-13.17578 -9.444755,-10.70338 -15.389146,-15.36995 -20.375,-15.64063 z m -1.015625,20.99414 c 9.440081,0.0956 18.892578,3.05458 18.892578,6.32422 0,2.42826 -0.187724,2.42295 -5.185547,-0.18359 -5.294209,-2.76114 -22.166643,-2.83371 -27.419921,-0.11719 -3.893802,2.01358 -7.339844,7.49931 -7.339844,11.6836 0,2.66597 4.758354,1.4546 9.822265,-2.5 4.96525,-3.87759 13.989315,-3.47546 20.44336,0.91015 2.886771,1.96162 6.246248,3.56641 7.464844,3.56641 2.436755,0 2.58674,0.60942 1.316406,5.349607 -0.47311,1.765449 -1.546054,3.210938 -2.384766,3.210938 -0.838711,0 -2.990839,1.37659 -4.78125,3.058594 -2.070018,1.944675 -5.739406,3.290849 -10.078125,3.697265 -5.637586,0.528094 -7.763622,-0.0033 -12.236328,-3.058593 -2.977251,-2.033522 -6.348114,-3.697266 -7.490234,-3.697266 -2.521893,0 -2.674217,-1.683193 -0.363282,-3.994141 1.331513,-1.331505 1.171465,-1.71289 -0.714843,-1.71289 -1.679771,0 -2.443796,1.206553 -2.486328,3.923828 -0.122512,7.827725 -1.641122,28.1892 -2.140625,28.701172 -0.281715,0.288755 -0.949353,-1.219857 -1.484375,-3.351563 -1.412862,-5.62928 0.25707,-36.308881 2.27539,-41.798831 2.237481,-6.08611 7.820448,-8.85869 19.873047,-9.86914 1.320487,-0.1107 2.668994,-0.15623 4.017578,-0.14258 z m -73.365233,2.17188 c 1.40014,0.005 2.97516,0.0193 4.75781,0.041 9.25737,0.11297 15.7447,0.83423 17.017579,1.89063 6.417179,5.32577 10.564454,24.001665 10.564454,47.574219 0,16.520601 0.33169,19.221916 2.609375,21.283203 3.878969,3.510427 8.588082,2.969685 10.490234,-1.205078 2.004984,-4.40046 2.946831,-4.471914 4.751953,-0.357422 0.774542,1.76545 2.935179,3.427279 4.802734,3.691406 3.009794,0.425671 3.291642,0.05987 2.470704,-3.210937 -0.509392,-2.029576 -0.341336,-3.689453 0.373046,-3.689454 1.542527,0 5.367968,9.15853 7.164063,17.152344 1.436968,6.395494 -0.636775,9.502383 -2.160156,3.236328 -1.579673,-6.497656 -4.328464,-9.357672 -9.38086,-9.761718 -6.415229,-0.513047 -8.335313,1.331571 -6.833984,6.566406 0.718894,2.506639 0.669867,4.205078 -0.121094,4.205078 -0.72987,0 -1.326172,-0.840187 -1.326172,-1.867188 0,-1.026995 -0.951227,-3.111669 -2.113281,-4.634765 -1.828765,-2.396947 -2.305545,-2.483092 -3.544922,-0.63086 -0.787537,1.176967 -1.492444,3.745421 -1.566406,5.707032 -0.158267,4.197304 -0.753196,2.791423 -2.023438,-4.779297 -0.816284,-4.865138 -1.276655,-5.374902 -4.039062,-4.464844 -1.715192,0.565048 -5.308021,1.111088 -7.982422,1.212891 -4.372133,0.166426 -5.040558,0.759648 -6.626955,5.890625 -1.2619,4.081403 -1.80708,4.770149 -1.91406,2.416015 -0.26585,-5.849568 2.92062,-15.722745 5.929687,-18.376953 2.853386,-2.516897 2.908508,-2.505409 2.166016,0.466797 -0.998025,3.995093 0.864,6.864684 3.738281,5.761719 1.716471,-0.658672 2.348185,-3.103144 2.542969,-9.837891 0.551417,-19.065555 -0.376416,-33.605606 -2.748047,-43.089844 -2.284493,-9.135772 -2.951242,-10.186632 -8.906246,-14.007812 -5.97346,-3.83301 -7.27852,-4.097 -18.09375,-3.67578 -9.87058,0.38443 -12.19602,0.96033 -15.18555,3.76953 -2.07754,1.95221 -3.89582,2.72495 -4.41992,1.87695 -0.4898,-0.79253 1.42464,-3.20772 4.25586,-5.36718 4.29351,-3.27483 5.55057,-3.81712 15.35156,-3.78516 z m 5.30273,11.82226 c 5.65078,-0.0152 7.26481,0.72679 12.48438,5.74219 6.404868,6.154378 7.665279,9.933596 3.314451,9.933596 -1.473211,0 -3.507171,0.998946 -4.519531,2.21875 -5.76576,6.947337 -15.97481,7.677132 -24.87891,1.779297 -5.71985,-3.788673 -12.14843,-10.753661 -12.14843,-13.162113 0,-0.48232 1.47513,-0.50702 3.27734,-0.0547 2.10517,0.52837 5.54735,-0.47561 9.62891,-2.8086 4.22244,-2.41351 8.52889,-3.63703 12.84179,-3.64844 z m 53.324222,19.275396 c 0.65387,0.0037 1.799013,0.501791 3.253906,1.455078 4.024358,2.63685 14.062072,3.396399 20.390625,1.541015 2.558533,-0.750085 2.156165,-0.234365 -1.425781,1.826172 -6.382325,3.671428 -12.338093,3.721942 -18.189453,0.154297 -2.550089,-1.554815 -4.636719,-3.553035 -4.636719,-4.439453 0,-0.364352 0.215097,-0.539334 0.607422,-0.537109 z m -41.003902,1.347656 c 0.28527,-0.0036 0.45117,0.153375 0.45117,0.486328 0,1.836534 -9.92484,8.926049 -12.10156,8.644531 -0.79867,-0.103297 -3.383,-0.583168 -5.74219,-1.068359 -4.87177,-1.00193 -11.66808,-5.372908 -10.3711,-6.669922 0.47306,-0.47307 2.54138,0.239913 4.59571,1.585937 4.58423,3.003725 16.87234,2.018516 20.96093,-1.68164 0.92387,-0.836073 1.73158,-1.29091 2.20704,-1.296875 z m 30.230464,59.4375 c 1.264172,-0.03243 2.727192,0.501635 5.148438,1.65625 2.812298,1.341084 6.377251,2.4375 7.919922,2.4375 5.990338,0 2.144026,9.216566 -5.111328,12.248047 -6.023747,2.5168827 -23.561698,2.6714336 -26.507813,0.234375 -3.117765,-2.579057 -7.186619,-9.515459 -6.363281,-10.847657 0.387017,-0.626218 3.313806,-2.315366 6.503906,-3.753906 4.858295,-2.190787 6.343242,-2.325374 9.144531,-0.826172 2.698922,1.444417 3.918176,1.431099 6.322266,-0.07031 1.097159,-0.685191 1.960115,-1.0529 2.943359,-1.078125 z"
         transform="translate(197.72079,276.3906)" />
    </g>
    <g
       id="layer7"
       inkscape:label="02"
       style="display:inline;fill:#d38d5f">
      <path
         style="fill:#d38d5f;stroke-width:1.42663"
         d="m 23.832438,9.5833874 c 1.254773,-5.084706 3.590865,-11.0230488 5.191302,-13.1963174 6.506511,-8.835282 8.870622,-30.457497 4.270011,-39.05381 -2.661331,-4.972743 -3.828144,-2.787018 -4.474719,8.382247 -0.532088,9.191512 -1.66024,13.296538 -6.603139,24.02691 -6.001426,13.0283627 -6.705539,16.448759 -5.069753,24.627694 1.436018,7.180112 4.226103,5.182688 6.686298,-4.7867236 z"
         id="path3242"
         transform="translate(197.72079,276.3906)" />
      <path
         style="fill:#d38d5f;stroke-width:1.42663"
         d="M 6.556131,8.3070672 C 5.9253738,-3.7104401 7.8928377,-13.984134 10.825006,-13.984134 c 0.894108,0 1.069985,1.273837 0.443191,3.209915 -1.8640198,5.7577581 -2.4240296,23.088045 -0.875879,27.105945 2.694403,6.992795 4.083298,4.195786 4.678915,-9.4226392 0.408284,-9.3352309 1.308633,-14.4522367 2.995992,-17.0274848 1.326765,-2.024886 4.112173,-8.604101 6.189813,-14.62045 3.093302,-8.957504 3.643668,-12.606294 3.03855,-20.144771 -1.173986,-14.625372 -3.03999,-14.008653 -8.385626,2.771481 -1.695647,5.322712 -3.603063,9.999072 -4.238684,10.391908 -0.635621,0.392858 -0.459076,-1.284037 0.392323,-3.726395 0.855264,-2.453405 1.143345,-7.393147 0.643721,-11.038216 -0.817685,-5.965689 -0.708361,-6.330705 1.141491,-3.81131 1.978449,2.694545 2.09623,2.65406 3.578984,-1.229866 4.334812,-11.354695 -0.07691,-39.736635 -7.515624,-48.349724 -2.616892,-3.030039 -10.7624751,-8.265899 -12.85951708,-8.265899 -1.58969262,0 1.49554848,7.13772 7.37243028,17.056176 6.6463518,11.217052 10.1174518,22.249758 9.2499898,29.400624 -1.014204,8.3605 -1.866971,8.537174 -6.137286,1.271438 -2.2851877,-3.888121 -5.4504046,-8.674274 -7.0338334,-10.635888 -2.83797954,-3.515816 -2.87939636,-3.521933 -2.91066629,-0.430307 -0.017387,1.724954 1.57689309,8.228456 3.54298829,14.452236 1.9660953,6.223785 3.7315485,15.559685 3.9232295,20.746452 0.3613829,9.778142 0.7555873,10.619327 3.6297589,7.745155 3.37399,-3.373995 1.631733,1.160706 -2.3142332,6.023455 -8.86752847,10.927706 -11.6677424,28.7953186 -5.9758498,38.130706 1.5548249,2.550099 3.0422996,4.636544 3.3054992,4.636544 0.2631685,0 0.1963398,-5.37655 -0.1485477,-11.9478882 z"
         id="path3240"
         transform="translate(197.72079,276.3906)" />
      <path
         style="fill:#d38d5f;stroke-width:1.42663"
         d="m -126.44395,3.1354082 c 0.70895,0 0.29277,2.9237199 -0.9248,6.4971533 -2.37896,6.9818505 -2.1253,8.3162215 1.3289,6.9907135 2.93717,-1.127095 3.86849,-5.133541 3.89186,-16.74254681 0.0152,-7.56682639 -0.47809,-9.86546879 -2.26444,-10.55094619 -2.90281,-1.113912 -4.79941,1.8574976 -4.82738,7.5630859 -0.012,2.45144782 -0.98482,7.1865406 -2.16178,10.522427 -1.17697,3.3358861 -2.0799,7.7499921 -2.0065,9.8091171 0.0893,2.504719 1.05053,0.79272 2.90429,-5.172573 1.52397,-4.904037 3.3509,-8.9164308 4.05985,-8.9164308 z"
         id="path3238"
         transform="translate(197.72079,276.3906)" />
      <path
         style="fill:#d38d5f;stroke-width:1.42663"
         d="m -154.22714,18.471669 c 0.50554,-4.119391 0.19683,-10.6997169 -0.686,-14.6229464 -1.73928,-7.7291455 -6.81633,-16.3808336 -9.62191,-16.3964866 -1.67678,-0.0098 -1.58361,2.475428 0.47215,12.59279525 0.38639,1.90159825 0.0934,2.96907335 -0.68316,2.48912415 -1.29394,-0.7996968 -2.41424,-5.730055 -3.70716,-16.3149104 -0.6741,-5.518731 -1.68867,-6.988672 -3.5211,-5.101469 -2.28927,2.357674 1.28986,16.0846972 6.40512,24.5655379 2.70424,4.4834931 5.32322,10.3987511 5.81994,13.1450121 1.79608,9.929979 4.27943,9.769599 5.52212,-0.356657 z"
         id="path3236"
         transform="translate(197.72079,276.3906)" />
      <path
         style="fill:#d38d5f;stroke-width:1.42663"
         d="m -161.35107,22.751556 c -0.49272,-1.765454 -3.90639,-9.308754 -7.58594,-16.76289 l -6.69008,-13.5529746 V -26.463744 c 0,-10.394691 -0.4036,-18.900965 -0.89689,-18.902833 -1.16459,-0.0043 -3.22974,5.352814 -7.07126,18.343567 -4.7948,16.214449 -2.78365,28.4354249 6.78254,41.214792 3.53855,4.727108 6.17881,5.985622 6.17881,2.945204 0,-0.930233 -1.18628,-3.016678 -2.63618,-4.636544 -4.09561,-4.5756979 -7.35022,-14.4205207 -7.35022,-22.2335654 0,-9.9247316 2.29494,-8.8912236 3.23319,1.4560576 0.47628,5.2524642 2.11365,10.9030426 4.23731,14.6229463 1.9036,3.3344463 4.31899,8.3095565 5.36754,11.0558165 1.04855,2.746261 2.51944,5.79568 3.26866,6.776488 2.21538,2.90018 4.12915,2.036869 3.16252,-1.426629 z"
         id="path3234"
         transform="translate(197.72079,276.3906)" />
      <path
         style="fill:#d38d5f;stroke-width:1.42663"
         d="M 6.999456,25.932269 C 7.4943268,25.131561 6.2651255,22.534441 4.2679163,20.160887 -0.68535259,14.274259 -2.8800473,5.4588338 -1.3877935,-2.5563418 0.24698061,-11.336984 -0.53193203,-36.141094 -2.8228974,-48.257052 c -1.0350505,-5.473922 -1.3844721,-9.952578 -0.7764874,-9.952578 1.3490337,0 3.65880383,11.606495 4.897403,24.609348 0.9457257,9.92821 2.7914982,12.409157 4.4161878,5.9359 1.3923898,-5.547745 -0.2085108,-18.772849 -3.438461,-28.405305 -1.5786496,-4.707875 -3.24322683,-12.342623 -3.6990615,-16.9661 -0.819955,-8.316559 -0.7985422,-8.378948 2.00466771,-5.842058 2.74967119,2.488411 2.83348559,2.466182 2.83348559,-0.751419 0,-1.82362 -1.925949,-6.728267 -4.27988668,-10.899204 -4.63083742,-8.205412 -4.91635042,-9.053401 -3.04807732,-9.053401 1.5944405,0 8.0703104,14.458982 11.8054522,26.358637 3.067711,9.773308 5.508914,12.101522 5.508914,5.253931 0,-6.310207 -3.6767524,-16.99951 -7.6300124,-22.182506 -1.9748512,-2.589162 -5.56599272,-8.785439 -7.9803036,-13.769513 -4.156568,-8.58076 -6.3406789,-11.28166 -9.163407,-11.33163 -2.278059,-0.0406 0.680814,16.312721 4.1859122,23.13462 4.0350771,7.853418 4.104768,8.229379 1.5253248,8.229379 -2.7612001,0 -3.8046053,12.737955 -3.8122689,46.540541 -0.0058,25.754905 1.4488709,46.3834592 3.8080737,54.000802 2.4933328,8.050409 10.0174583,13.563513 12.6648982,9.279877 z"
         id="path3232"
         transform="translate(197.72079,276.3906)" />
      <path
         style="fill:#d38d5f;stroke-width:1.42663"
         d="m 0.56157903,30.803962 c 0,-0.475224 -1.58029023,-2.742092 -3.51174513,-5.037512 -4.6125231,-5.481661 -6.217066,-11.53137 -8.0834529,-30.4775008 -1.467886,-14.9009782 -0.719405,-69.4223572 1.0670601,-77.7268172 0.5898843,-2.742039 0.4256704,-3.09389 -0.6944961,-1.48826 -3.438305,4.928375 -5.145494,23.097662 -5.164268,54.96239 -0.02229,37.8978086 1.678331,47.822665 9.5940352,55.989603 4.2118945,4.34557 6.79286683,5.78107 6.79286683,3.778097 z"
         id="path3230"
         transform="translate(197.72079,276.3906)" />
      <path
         style="fill:#d38d5f;stroke-width:1.42663"
         d="m -147.80783,35.997734 c 0,-1.54187 1.03705,-5.857966 2.30456,-9.591311 4.34511,-12.79823 2.38292,-27.4625486 -6.09839,-45.575854 -4.22887,-9.031506 -6.32995,-16.827061 -3.8731,-14.370219 0.49106,0.491072 3.75736,7.499387 7.25845,15.574035 7.67963,17.71175412 9.5004,31.832429 5.58593,43.320755 -2.5102,7.367054 -1.06827,11.963197 1.97134,6.283614 3.82027,-7.138236 6.82908,-39.1956709 4.47533,-47.682615 -2.08168,-7.505949 -0.83264,-8.314919 2.11407,-1.369234 3.08123,7.262794 4.35587,3.663597 1.35692,-3.831528 -1.26223,-3.154616 -3.05119,-13.885736 -3.97548,-23.846927 -1.1416,-12.303275 -2.48808,-19.458091 -4.19878,-22.311063 -2.18759,-3.648318 -2.64678,-3.864867 -3.49703,-1.649156 -1.03371,2.693805 0.23651,25.002813 1.73424,30.458286 0.48468,1.765453 0.26781,3.209915 -0.48189,3.209915 -0.74973,0 -2.21172,-5.454961 -3.24888,-12.122137 -1.51507,-9.739283 -1.54316,-14.039156 -0.14289,-21.874474 1.68532,-9.430472 1.07417,-17.362029 -1.3378,-17.362029 -2.46553,0 -6.09524,17.053449 -6.75617,31.742493 -0.4028,8.951869 -1.29177,15.33626 -2.13546,15.33626 -2.12238,0 -0.25145,-29.018733 2.48343,-38.51898 3.27789,-11.386496 4.82547,-19.972805 3.59986,-19.972805 -3.52838,0 -12.76298,34.572225 -12.87454,48.199313 -0.0366,4.467547 -0.28358,4.88599 -1.57394,2.666098 -3.26768,-5.621645 3.9964,-38.319007 11.44516,-51.517496 2.44114,-4.325445 4.43843,-9.310075 4.43843,-11.076945 0,-2.51635 -1.11016,-1.56399 -5.12303,4.39479 -6.6023,9.803833 -8.5285,14.548248 -10.51148,25.890674 -0.89067,5.094546 -2.86128,13.114728 -4.37913,17.822603 -5.52459,17.135454 -3.07812,38.298139 5.20708,45.04271 2.25865,1.838652 2.39075,1.759434 1.36256,-0.817214 -2.0221,-5.067443 -2.80372,-22.112748 -1.01398,-22.112748 1.00326,0 1.61832,2.875728 1.61832,7.566426 0,4.852477 1.84563,13.16774 5.14556,23.1827193 4.7512,14.4194911 5.06893,16.4362897 4.14582,26.3160067 -1.37302,14.694951 -1.29192,16.865366 0.72072,19.290448 2.43182,2.930167 4.25419,2.632701 4.25419,-0.694411 z"
         id="path3228"
         transform="translate(197.72079,276.3906)" />
      <path
         style="fill:#d38d5f;stroke-width:1.42663"
         d="m -95.022558,-140.24079 c 0,-1.17697 -0.641983,-2.13995 -1.426629,-2.13995 -0.784645,0 -1.426628,0.96298 -1.426628,2.13995 0,1.17697 0.641983,2.13994 1.426628,2.13994 0.784646,0 1.426629,-0.96297 1.426629,-2.13994 z"
         id="path3288"
         transform="translate(197.72079,276.3906)" />
      <path
         style="fill:#d38d5f;stroke-width:1.42663"
         d="m -52.22369,-140.24079 c 0,-2.2192 -0.808427,-3.56657 -2.139944,-3.56657 -2.568315,0 -2.808377,3.0408 -0.427989,5.42119 2.36137,2.36136 2.567933,2.2122 2.567933,-1.85462 z"
         id="path3286"
         transform="translate(197.72079,276.3906)" />
      <path
         style="fill:#d38d5f;stroke-width:1.42663"
         d="m -58.718231,-141.03666 c -2.726859,-3.01315 -5.673735,-3.58457 -7.044854,-1.36605 -0.477462,0.77256 1.250101,2.69351 3.839031,4.26878 5.277002,3.21084 7.179537,1.48817 3.205823,-2.90273 z"
         id="path3284"
         transform="translate(197.72079,276.3906)" />
      <path
         style="fill:#d38d5f;stroke-width:1.42663"
         d="m -105.32492,-140.71954 c 0.72591,-2.17773 -2.91292,-2.14155 -5.10523,0.0508 -0.94157,0.94157 -1.71195,2.62484 -1.71195,3.74058 0,1.73833 0.44814,1.73107 3.13172,-0.0508 1.72245,-1.14368 3.38091,-2.82693 3.68546,-3.74058 z"
         id="path3282"
         transform="translate(197.72079,276.3906)" />
      <path
         style="fill:#d38d5f;stroke-width:1.42663"
         d="m -112.1421,-141.34566 c 0,-2.8766 -3.59737,0.16861 -3.96517,3.35656 -0.38599,3.34565 -0.32964,3.3673 1.78328,0.68555 1.20004,-1.5231 2.18189,-3.34205 2.18189,-4.04211 z"
         id="path3280"
         transform="translate(197.72079,276.3906)" />
      <path
         style="fill:#d38d5f;stroke-width:1.42663"
         d="m 13.401239,-110.82068 c 0,-8.10171 -2.531366,-14.58778 -8.4161385,-21.56454 -5.76044217,-6.82934 -6.8778359,-4.65026 -2.5089141,4.89273 1.9987338,4.3658 3.1611822,7.93782 2.5832103,7.93782 -0.5779541,0 -2.8006866,-3.81223 -4.93938607,-8.47161 -3.65359663,-7.95972 -7.62636133,-11.42864 -10.82476063,-9.45192 -2.720127,1.68113 0.648942,7.5086 8.9118786,15.41488 4.7083168,4.5051 8.1175586,8.63412 7.5760816,9.17558 -1.3365506,1.33657 -10.2175875,-7.35744 -15.554263,-15.22671 -2.3945382,-3.5309 -5.9842672,-8.18528 -7.9771652,-10.34306 -3.647547,-3.94931 -9.267595,-5.19628 -10.9742,-2.43494 -2.153313,3.48413 23.8940637,29.89755 29.48322576,29.89755 1.37220304,0 4.29617704,1.58467 6.49771064,3.52149 2.2015291,1.93682 4.4842646,3.54178 5.0727496,3.56657 0.588484,0.025 1.069971,-3.08642 1.069971,-6.91384 z"
         id="path3278"
         transform="translate(197.72079,276.3906)" />
      <path
         style="fill:#d38d5f;stroke-width:1.42663"
         d="m -168.42656,-86.679138 c -0.98726,-15.232512 -0.39702,-21.462502 2.03341,-21.462502 0.65736,0 0.84593,3.8519 0.41904,8.559771 -0.4269,4.707876 -0.41451,8.559774 0.0275,8.559774 0.44204,0 2.93863,-4.300087 5.548,-9.555765 4.77033,-9.60815 9.74505,-15.36711 26.85706,-31.09096 8.10555,-7.448 8.87565,-8.58056 6.1165,-8.99529 -5.31769,-0.7993 -13.12477,4.00076 -17.82501,10.95944 -5.62026,8.32075 -5.26037,7.92294 -6.26186,6.92145 -0.46796,-0.46795 1.19888,-3.82999 3.70408,-7.47117 4.95501,-7.20185 4.76905,-9.3539 -0.56172,-6.50096 -3.85857,2.06504 -10.08501,13.79975 -11.5952,21.85298 -0.5534,2.95108 -1.5754,5.71741 -2.27109,6.14736 -2.62923,1.62495 -1.03181,-7.59852 2.92047,-16.86284 3.88614,-9.10928 3.95733,-9.62974 1.31718,-9.62974 -6.14599,0 -10.74411,3.95072 -12.78756,10.9871 -3.16887,10.91167 -1.67791,53.2112 1.87558,53.2112 1.01498,0 1.17061,-5.029995 0.48361,-15.629848 z"
         id="path3276"
         transform="translate(197.72079,276.3906)" />
      <path
         style="fill:#d38d5f;stroke-width:1.42663"
         d="m -17.197552,9.9118955 c -0.534803,-1.7654533 -1.344585,-9.25244192 -1.799523,-16.6377565 -0.724344,-11.758846 -1.067462,-13.099195 -2.760599,-10.783705 -2.581413,3.530296 -2.498883,19.3833081 0.133658,25.6840013 2.309971,5.5285307 6.015425,6.9830057 4.426415,1.7374602 z"
         id="path3274"
         transform="translate(197.72079,276.3906)" />
    </g>
    <g
       id="layer6"
       inkscape:label="01"
       style="display:inline;fill:#ffcc00">
      <path
         style="fill:#ff0000;stroke-width:1.42663"
         d="m -74.955966,-215.189 c 5.099396,-2.72911 1.963064,-14.21609 -3.881469,-14.21609 -2.127821,0 -7.625349,5.00396 -7.625349,6.94075 0,1.90343 5.736234,8.75216 7.330478,8.75216 0.779278,0 2.658635,-0.66457 4.17634,-1.47682 z"
         id="path3326"
         transform="translate(197.72079,276.3906)" />
      <path
         style="fill:#ff0000;stroke-width:1.42663"
         d="m 20.569693,-211.66511 c 2.410989,-6.34139 1.790263,-9.43583 -1.789893,-8.92278 -5.653245,0.81013 -7.357424,12.58223 -1.821449,12.58223 1.221012,0 2.846111,-1.64675 3.611342,-3.65945 z"
         id="path3324"
         transform="translate(197.72079,276.3906)" />
      <path
         style="fill:#ff0000;stroke-width:1.42663"
         d="m -170.10211,-212.56502 c -0.93882,-3.27346 -2.20738,-4.71373 -4.15175,-4.71373 -2.25062,0 -2.71084,0.82362 -2.34604,4.19856 0.24959,2.30921 1.11475,5.43353 1.92255,6.94293 1.33168,2.48826 1.67676,2.53633 3.69793,0.51517 1.74604,-1.74604 1.93619,-3.25083 0.87731,-6.94293 z"
         id="path3322"
         transform="translate(197.72079,276.3906)" />
      <path
         style="fill:#ffcc00;stroke-width:1.42663"
         d="m -83.719265,-186.71597 c 3.815826,-3.81583 4.389625,-5.39473 4.389625,-12.07879 0,-6.74357 -0.570192,-8.27688 -4.636544,-12.46814 -2.550099,-2.62844 -5.347879,-6.01927 -6.217284,-7.53519 -0.954089,-1.66356 -3.216308,-2.80322 -5.706516,-2.87483 -2.269178,-0.0652 -4.286266,-0.54771 -4.482436,-1.07214 -1.0565,-2.82454 0.13834,-3.54707 4.653993,-2.81428 4.031836,0.65428 5.677711,0.14904 8.425398,-2.58629 1.878113,-1.86967 4.438189,-4.2272 5.689066,-5.23894 1.466499,-1.18614 2.274323,-4.09985 2.274323,-8.20312 0,-8.76747 2.260654,-8.01149 3.341856,1.11755 0.487314,4.11463 1.479463,7.67895 2.20477,7.92072 0.725312,0.24177 3.299102,2.33211 5.719534,4.64521 2.931036,2.80105 5.874216,4.20563 8.812545,4.20563 6.022711,0 4.685246,3.54031 -1.378212,3.64817 -3.423495,0.0609 -5.267226,1.11861 -7.268955,4.17008 -1.475103,2.24866 -3.554058,4.5765 -4.619897,5.17298 -1.258078,0.70405 -2.057155,4.31461 -2.277859,10.29226 -0.299815,8.12076 0.101157,9.73199 3.396461,13.64826 3.247618,3.85957 4.653003,4.44048 10.742747,4.44048 3.853481,0 7.003036,-0.48148 6.999028,-1.06997 -0.0043,-0.58848 -1.588952,-3.6379 -3.522048,-6.77648 -4.332173,-7.03369 -4.436401,-8.72258 -0.600227,-9.72576 4.437756,-1.1605 2.496061,-4.43335 -3.116971,-5.25384 -3.708236,-0.54206 -4.989447,-1.4855 -5.336519,-3.92961 -0.597838,-4.21013 2.31405,-5.20039 9.556947,-3.25009 4.840721,1.30347 6.62522,1.15925 10.492584,-0.84803 l 4.659882,-2.41862 -4.003379,-1.34226 c -2.976033,-0.99781 -3.891273,-2.12861 -3.566572,-4.40657 0.342391,-2.402 1.469245,-3.09515 5.213562,-3.20698 4.645357,-0.13874 7.765466,-2.67185 6.853168,-5.56385 -0.392189,-1.2432 -3.201315,-2.42011 -10.720617,-4.49146 -1.52882,-0.42114 -1.578752,-0.97555 -0.233842,-2.59607 0.940563,-1.13332 1.295968,-2.73068 0.789782,-3.54969 -1.835385,-2.96973 -6.524902,-1.3755 -11.356537,3.86073 -4.11866,4.46356 -5.362653,5.08968 -7.50899,3.77936 -1.41489,-0.86378 -2.765716,-3.48526 -3.001846,-5.82551 -0.364276,-3.61037 0.459451,-4.84316 5.437088,-8.13721 4.743671,-3.13921 5.781472,-4.59708 5.422532,-7.61745 -0.548423,-4.61478 -3.377343,-5.8171 -4.408582,-1.87367 -0.41876,1.60138 -1.483623,2.91159 -2.366363,2.91159 -1.671229,0 -2.137032,-0.97683 -3.554325,-7.45373 -0.489445,-2.23672 -2.501376,-4.7521 -4.738526,-5.92426 -3.40033,-1.78161 -4.426834,-1.76117 -8.184989,0.163 -5.141205,2.63228 -6.386179,4.30577 -6.415158,8.62322 -0.02864,4.26886 -4.143907,5.83548 -6.579434,2.50469 -2.676686,-3.66058 -6.589898,-1.74522 -6.020958,2.94703 0.31992,2.63847 2.121495,4.65742 6.158717,6.9018 4.52985,2.51825 5.798845,4.10628 6.154294,7.70153 0.809661,8.18949 -8.796567,7.48741 -13.166051,-0.96226 -2.35737,-4.55865 -6.27079,-6.78232 -8.32353,-4.72958 -0.78919,0.78918 -0.60586,2.42504 0.46371,4.13768 0.97289,1.55786 1.34518,3.93668 0.8273,5.28626 -0.75745,1.97389 -2.00924,2.27341 -6.40051,1.53151 -4.13749,-0.69902 -5.92972,-0.35496 -7.40393,1.42135 -2.93384,3.53506 -6.5e-4,7.08798 5.89592,7.14161 8.98791,0.0818 11.20715,3.90659 4.02005,6.92854 l -4.37976,1.84155 3.61626,2.36947 c 4.00133,2.62177 8.939,3.01947 13.966829,1.12494 4.053784,-1.5275 9.722619,0.38978 9.722619,3.2883 0,2.73503 -4.906819,5.37744 -8.9373,4.81289 -2.054998,-0.28782 -3.288028,0.4147 -3.615148,2.05976 -0.29767,1.49715 0.36843,2.4966 1.66393,2.4966 3.975614,0 3.830517,2.59887 -0.50364,9.02088 -2.36542,3.50488 -4.30076,6.7609 -4.30076,7.23559 0,0.47469 3.80251,0.86307 8.450034,0.86307 7.533698,0 8.926047,-0.47601 12.839661,-4.38962 z"
         id="path3320"
         transform="translate(197.72079,276.3906)" />
      <path
         style="fill:#ffcc00;stroke-width:1.42663"
         d="m -123.55514,-182.04102 c 0,-0.62772 -0.5984,-1.75119 -1.32978,-2.4966 -0.73139,-0.74541 -1.53387,-3.28125 -1.78329,-5.63518 -0.39469,-3.72474 -0.037,-4.22199 2.75642,-3.83356 5.39981,0.75084 4.16845,-5.0286 -1.66397,-7.80988 -4.71184,-2.24692 -5.01827,-2.21058 -9.21735,1.09305 -5.11082,4.02096 -5.20239,7.63052 -0.19456,7.66964 3.25267,0.0254 3.48593,0.4857 3.08658,6.09066 -0.4213,5.91288 -0.32322,6.06317 3.95698,6.06317 2.41394,0 4.38898,-0.51358 4.38898,-1.1413 z"
         id="path3318"
         transform="translate(197.72079,276.3906)" />
      <path
         style="fill:#ffcc00;stroke-width:1.42663"
         d="m -27.732467,-185.54037 c -0.443904,-6.33948 -0.262054,-6.75713 2.79478,-6.41983 4.548209,0.50186 4.777936,-3.01992 0.533817,-8.18349 l -3.505026,-4.26437 -5.024262,2.70574 c -6.097652,3.2838 -6.897706,7.96295 -1.36153,7.96295 3.137113,0 3.522334,0.46062 2.684515,3.20991 -0.538009,1.76545 -1.865233,4.22344 -2.9494,5.4622 -3.68969,4.21579 -1.698201,7.16048 4.448631,6.57791 2.490421,-0.23602 2.792884,-1.13266 2.378475,-7.05102 z"
         id="path3316"
         transform="translate(197.72079,276.3906)" />
      <path
         style="fill:#ffcc00;stroke-width:1.42663"
         d="m 8.5636386,-177.71165 c 0.8702303,-0.57647 2.3967944,-3.61605 3.3923674,-6.75464 0.995587,-3.13858 2.370019,-7.18118 3.054315,-8.98355 2.009304,-5.29231 1.444203,-9.6527 -1.609082,-12.41588 -1.569292,-1.42019 -2.853258,-3.68005 -2.853258,-5.02192 0,-1.34186 -1.3305585,-4.13128 -2.956804,-6.19871 l -2.9567998,-3.75897 h 3.6029914 c 1.9816454,0 5.0776574,-0.59756 6.8800334,-1.3279 1.802377,-0.73034 4.936979,-1.67906 6.965801,-2.10827 3.2618,-0.69006 4.18536,-2.39401 7.979363,-14.72168 4.156497,-13.50554 4.20231,-13.95635 1.465777,-14.42278 -3.416919,-0.58239 -5.236272,1.95809 -5.265603,7.35272 -0.01917,3.53746 -0.491046,3.96401 -3.94507,3.56658 -3.644168,-0.41931 -3.904015,-0.88269 -3.653124,-6.51459 0.337531,-7.577 -1.227516,-7.72461 -4.518633,-0.42618 l -2.541941,5.63699 3.751891,4.45887 c 4.376301,5.20093 4.80486,9.28255 1.178423,11.22336 -3.141678,1.68137 -4.080159,1.06355 -10.0662761,-6.62675 -4.3874723,-5.63654 -8.7596887,-7.95078 -8.7596887,-4.63655 0,0.78465 0.641983,1.42663 1.42662892,1.42663 0.7846459,0 1.42662891,1.59512 1.42662891,3.5447 0,3.47145 -0.17280043,3.52664 -8.36269803,2.67062 -4.845447,-0.50644 -8.720586,-0.295 -9.213597,0.5027 -1.431681,2.31649 3.269548,7.54827 6.782791,7.54827 3.7330908,0 7.2350502,3.38506 5.8389199,5.64402 -0.5061813,0.81902 -2.449504,1.48913 -4.3185038,1.48913 -4.8750491,0 -5.4109051,1.96348 -1.5306881,5.60875 2.8702347,2.69645 4.3371971,3.02589 9.81570622,2.20433 5.57024578,-0.8353 6.65048918,-0.57476 7.98938048,1.92698 3.1434203,5.87352 -1.7473663,9.87343 -9.8866231,8.08575 -4.5041706,-0.98928 -5.8645014,1.38629 -2.6402086,4.6106 1.1924211,1.19241 0.2712824,3.23848 -3.5665722,7.92205 -2.8458078,3.47294 -5.1741958,6.68716 -5.1741958,7.14271 0,1.89371 19.6497579,3.08726 22.2683486,1.35261 z"
         id="path3314"
         transform="translate(197.72079,276.3906)" />
      <path
         style="fill:#ffcc00;stroke-width:1.42663"
         d="m -148.78294,-179.40428 c 0.64066,-0.61298 -0.1588,-3.28666 -1.77656,-5.94151 -2.14815,-3.52526 -2.70041,-6.11792 -2.04784,-9.61381 0.84712,-4.53812 0.7356,-4.70227 -2.14667,-3.15972 -4.47246,2.39359 -8.74674,-0.32951 -8.74674,-5.57246 0,-5.31854 1.20923,-5.96445 7.77311,-4.15208 4.6724,1.29011 5.77255,1.09894 8.51783,-1.48012 1.73385,-1.62886 4.23455,-2.96157 5.5571,-2.96157 1.32256,0 2.40466,-0.64957 2.40466,-1.44349 0,-0.87229 -2.14422,-1.10061 -5.41871,-0.577 -4.11588,0.65816 -5.90371,0.28207 -7.43595,-1.56415 -1.76446,-2.12604 -1.67697,-2.67945 0.69817,-4.4162 1.49349,-1.09206 4.4438,-1.98556 6.55625,-1.98556 2.77794,0 4.07811,-0.8883 4.69827,-3.20992 1.20228,-4.50086 -2.75639,-7.1827 -8.91898,-6.04225 -4.0191,0.74378 -4.67624,0.51815 -3.92323,-1.34703 0.49748,-1.23226 1.33696,-3.31489 1.86551,-4.62808 0.74441,-1.84954 0.3966,-2.17105 -1.54331,-1.42663 -1.37737,0.52855 -4.33448,0.96099 -6.57137,0.96099 -4.10909,0 -4.40565,0.41724 -6.27001,8.82135 -0.99008,4.46308 -5.70006,6.49895 -8.89704,3.8457 -2.90589,-2.41168 -1.70088,-10.07645 2.25104,-14.31834 3.04933,-3.27306 3.63184,-6.32529 2.01253,-10.54514 -0.72904,-1.89986 -1.2844,-1.37433 -2.4966,2.36255 -2.76609,8.52711 -10.38002,6.6417 -8.5371,-2.11402 0.95736,-4.54845 -0.93449,-6.54059 -6.24538,-6.57643 -3.8143,-0.0257 -3.76651,0.29279 3.01211,20.07444 l 4.50487,13.14631 7.84646,2.33407 c 7.71976,2.29638 7.83885,2.41384 7.37479,7.27473 -0.25942,2.71737 -1.82804,7.68986 -3.48583,11.04996 -2.79611,5.66736 -2.88186,6.74978 -1.18535,14.96348 1.00585,4.8698 2.17059,9.40721 2.58833,10.08312 0.87178,1.41058 16.23028,-0.16166 17.98564,-1.84119 z"
         id="path3312"
         transform="translate(197.72079,276.3906)" />
      <path
         style="fill:#ffcc00;stroke-width:1.42663"
         d="m 11.97461,-167.44918 c 0,-3.97455 -4.9363497,-4.92164 -48.505383,-9.3063 -49.920527,-5.02386 -131.249857,0.0321 -131.249857,8.15967 0,3.37684 3.29025,3.66291 15.86286,1.37923 35.67758,-6.48048 108.92193,-5.97743 149.6604863,1.02788 11.5254095,1.98187 14.2318937,1.74217 14.2318937,-1.26048 z"
         id="path3310"
         transform="translate(197.72079,276.3906)" />
      <path
         style="fill:#008080;stroke-width:1.42663"
         d="m -28.243458,-157.8592 c 5.020164,-1.4139 4.42369,-3.29149 -1.721514,-5.41901 -4.18012,-1.44719 -6.924883,-1.55772 -11.056374,-0.44524 -6.271674,1.68879 -6.883894,3.1177 -2.285914,5.33522 3.564147,1.71893 10.032385,1.94608 15.063802,0.52902 z"
         id="path3308"
         transform="translate(197.72079,276.3906)" />
      <path
         style="fill:#008080;stroke-width:1.42663"
         d="m -71.64747,-159.83711 c 1.227529,-1.95984 0.898112,-3.12998 -1.57832,-5.60641 -2.701919,-2.70192 -3.630806,-2.90129 -6.796723,-1.4588 -4.107822,1.87165 -5.74174,4.87352 -4.464426,8.20215 1.170054,3.04911 10.748838,2.2009 12.839469,-1.13694 z"
         id="path3306"
         transform="translate(197.72079,276.3906)" />
      <path
         style="fill:#008080;stroke-width:1.42663"
         d="m -118.30656,-158.36025 c 5.54105,-2.00367 5.98782,-3.32553 1.52791,-4.52073 -4.95002,-1.32656 -11.6001,-1.05854 -16.55,0.667 -5.53633,1.92997 -5.7654,3.75802 -0.56955,4.54513 7.60008,1.15131 10.90044,1.00496 15.59164,-0.6914 z"
         id="path3304"
         transform="translate(197.72079,276.3906)" />
      <path
         style="fill:#ffcc00;stroke-width:1.42663"
         d="m -49.589607,-156.48138 c 1.409553,-0.8933 0.745043,-1.62715 -2.496601,-2.7572 -2.429549,-0.84695 -4.417369,-1.92769 -4.417369,-2.40165 0,-0.47395 1.98782,-1.55469 4.417369,-2.40164 6.218921,-2.16792 2.712837,-3.9689 -7.77992,-3.99634 -7.038318,-0.0183 -8.219215,0.33397 -7.489797,2.23478 0.476271,1.24114 0.865945,3.77216 0.865945,5.62449 0,2.92544 0.796487,3.4396 6.063173,3.91396 3.334745,0.30035 6.705156,0.64843 7.489802,0.7735 0.784646,0.12505 2.290979,-0.32037 3.347398,-0.9899 z"
         id="path3302"
         transform="translate(197.72079,276.3906)" />
      <path
         style="fill:#ffcc00;stroke-width:1.42663"
         d="m -88.164044,-161.99688 0.438689,-6.06318 h -12.837495 c -13.47655,0 -18.31285,1.8681 -8.78193,3.39216 7.50091,1.19944 8.30949,3.15116 2.21805,5.35385 -8.12542,2.93819 -5.81337,4.23714 6.75431,3.7947 l 11.769692,-0.41435 z"
         id="path3300"
         transform="translate(197.72079,276.3906)" />
      <path
         style="fill:#ffcc00;stroke-width:1.42663"
         d="m -6.5715655,-157.19098 c 0,-4.54537 -0.3805978,-4.91967 -6.5933665,-6.48406 -3.626348,-0.91313 -6.996758,-1.22244 -7.489801,-0.68737 -0.493043,0.53508 -0.184972,1.22912 0.684541,1.54232 0.86953,0.31319 2.795479,1.46342 4.279886,2.55605 2.521536,1.85605 2.534835,2.04018 0.202314,2.80181 -7.521874,2.45609 -7.656418,2.58375 -3.923229,3.72263 1.961615,0.59843 5.653017,1.15204 8.203116,1.23026 4.3448563,0.13325 4.636544,-0.16126 4.636544,-4.68164 z"
         id="path3298"
         transform="translate(197.72079,276.3906)" />
      <path
         style="fill:#ffcc00;stroke-width:1.42663"
         d="m -136.3948,-153.74379 c 0.39233,-0.14387 -1.85355,-1.3939 -4.99084,-2.77784 l -5.70416,-2.51625 4.27753,-2.31403 4.27753,-2.31402 -4.27989,-0.0352 c -6.07961,-0.0501 -7.5809,1.40493 -6.80444,6.59482 0.65062,4.34878 0.9198,4.51527 6.59464,4.07901 3.25397,-0.25021 6.23731,-0.5726 6.62963,-0.71647 z"
         id="path3296"
         transform="translate(197.72079,276.3906)" />
      <path
         style="fill:#008080;stroke-width:1.42663"
         d="m 8.0043867,-152.7238 c 1.6734224,-1.30792 1.9485032,-2.63893 1.0319521,-4.9932 -1.0088986,-2.59147 -2.3579724,-3.20991 -7.0021667,-3.20991 -5.2044135,0 -5.7524798,0.34417 -5.7524798,3.61254 0,5.20596 7.2852232,8.05883 11.7226944,4.59057 z"
         id="path3294"
         transform="translate(197.72079,276.3906)" />
      <path
         style="fill:#008080;stroke-width:1.42663"
         d="m -155.20224,-153.90556 c 2.2844,-3.6579 0.0707,-7.02135 -4.62129,-7.02135 -4.01754,0 -6.53047,2.58015 -6.53047,6.70515 0,2.75279 0.74891,3.28125 4.65003,3.28125 3.16342,0 5.24202,-0.94792 6.50173,-2.96505 z"
         id="path3292"
         transform="translate(197.72079,276.3906)" />
      <path
         style="fill:#ffcc00;stroke-width:1.42663"
         d="m -142.10131,-142.35311 c 7.45413,-0.85769 16.4419,-2.12089 19.9728,-2.80711 3.53091,-0.68622 13.48165,-1.38801 22.11275,-1.55954 46.652095,-0.9271 68.570692,-0.17333 84.296293,2.89895 10.9442859,2.13815 22.7008761,1.45944 22.7008761,-1.31054 0,-1.12052 -1.8218319,-2.52453 -4.0485009,-3.12004 -13.5298052,-3.61843 -88.1869592,-6.11981 -120.0682182,-4.02288 -20.45951,1.34568 -38.66891,3.66148 -41.17651,5.23665 -0.89229,0.56051 -2.68895,0.84391 -3.99257,0.62979 -2.90546,-0.47724 -4.59902,1.96424 -3.44628,4.96824 0.62906,1.6393 2.0817,2.02088 5.47627,1.43852 2.54107,-0.43594 10.71895,-1.49436 18.17309,-2.35204 z"
         id="path3290"
         transform="translate(197.72079,276.3906)" />
    </g>
  </g>
</svg>
